<svg id="visual" viewBox="0 0 900 600" width="900" height="600" xmlns="http://www.w3.org/2000/svg" xmlns:xlink="http://www.w3.org/1999/xlink" version="1.1"><path d="M0 419L21.5 414.3C43 409.7 86 400.3 128.8 403.7C171.7 407 214.3 423 257.2 428.5C300 434 343 429 385.8 421.5C428.7 414 471.3 404 514.2 393.3C557 382.7 600 371.3 642.8 365.2C685.7 359 728.3 358 771.2 359.5C814 361 857 365 878.5 367L900 369L900 601L878.5 601C857 601 814 601 771.2 601C728.3 601 685.7 601 642.8 601C600 601 557 601 514.2 601C471.3 601 428.7 601 385.8 601C343 601 300 601 257.2 601C214.3 601 171.7 601 128.8 601C86 601 43 601 21.5 601L0 601Z" fill="#bccad6"></path><path d="M0 480L21.5 475.3C43 470.7 86 461.3 128.8 458.8C171.7 456.3 214.3 460.7 257.2 464.7C300 468.7 343 472.3 385.8 471.7C428.7 471 471.3 466 514.2 465.3C557 464.7 600 468.3 642.8 465.8C685.7 463.3 728.3 454.7 771.2 456C814 457.3 857 468.7 878.5 474.3L900 480L900 601L878.5 601C857 601 814 601 771.2 601C728.3 601 685.7 601 642.8 601C600 601 557 601 514.2 601C471.3 601 428.7 601 385.8 601C343 601 300 601 257.2 601C214.3 601 171.7 601 128.8 601C86 601 43 601 21.5 601L0 601Z" fill="#a4b4c5"></path><path d="M0 452L21.5 459.7C43 467.3 86 482.7 128.8 489C171.7 495.3 214.3 492.7 257.2 487.2C300 481.7 343 473.3 385.8 475C428.7 476.7 471.3 488.3 514.2 493C557 497.7 600 495.3 642.8 493.2C685.7 491 728.3 489 771.2 482.7C814 476.3 857 465.7 878.5 460.3L900 455L900 601L878.5 601C857 601 814 601 771.2 601C728.3 601 685.7 601 642.8 601C600 601 557 601 514.2 601C471.3 601 428.7 601 385.8 601C343 601 300 601 257.2 601C214.3 601 171.7 601 128.8 601C86 601 43 601 21.5 601L0 601Z" fill="#8d9eb4"></path><path d="M0 496L21.5 503C43 510 86 524 128.8 525.8C171.7 527.7 214.3 517.3 257.2 513.5C300 509.7 343 512.3 385.8 515.5C428.7 518.7 471.3 522.3 514.2 522.7C557 523 600 520 642.8 521.7C685.7 523.3 728.3 529.7 771.2 532.8C814 536 857 536 878.5 536L900 536L900 601L878.5 601C857 601 814 601 771.2 601C728.3 601 685.7 601 642.8 601C600 601 557 601 514.2 601C471.3 601 428.7 601 385.8 601C343 601 300 601 257.2 601C214.3 601 171.7 601 128.8 601C86 601 43 601 21.5 601L0 601Z" fill="#7888a3"></path><path d="M0 538L21.5 539.2C43 540.3 86 542.7 128.8 544.7C171.7 546.7 214.3 548.3 257.2 550C300 551.7 343 553.3 385.8 551C428.7 548.7 471.3 542.3 514.2 544.7C557 547 600 558 642.8 556.5C685.7 555 728.3 541 771.2 536.2C814 531.3 857 535.7 878.5 537.8L900 540L900 601L878.5 601C857 601 814 601 771.2 601C728.3 601 685.7 601 642.8 601C600 601 557 601 514.2 601C471.3 601 428.7 601 385.8 601C343 601 300 601 257.2 601C214.3 601 171.7 601 128.8 601C86 601 43 601 21.5 601L0 601Z" fill="#667292"></path></svg>