<svg id="visual" viewBox="0 0 900 600" width="900" height="600" xmlns="http://www.w3.org/2000/svg" xmlns:xlink="http://www.w3.org/1999/xlink" version="1.1"><path d="M189 0L602 0L602 26L592 26L592 52L77 52L77 78L510 78L510 104L395 104L395 130L424 130L424 157L279 157L279 183L367 183L367 209L189 209L189 235L510 235L510 261L6 261L6 287L163 287L163 313L615 313L615 339L389 339L389 365L687 365L687 391L367 391L367 417L182 417L182 443L360 443L360 470L192 470L192 496L605 496L605 522L79 522L79 548L713 548L713 574L498 574L498 600L0 600L0 574L0 574L0 548L0 548L0 522L0 522L0 496L0 496L0 470L0 470L0 443L0 443L0 417L0 417L0 391L0 391L0 365L0 365L0 339L0 339L0 313L0 313L0 287L0 287L0 261L0 261L0 235L0 235L0 209L0 209L0 183L0 183L0 157L0 157L0 130L0 130L0 104L0 104L0 78L0 78L0 52L0 52L0 26L0 26L0 0L0 0Z" fill="#bccad6"></path><path d="M386 0L324 0L324 26L124 26L124 52L42 52L42 78L318 78L318 104L44 104L44 130L111 130L111 157L516 157L516 183L444 183L444 209L30 209L30 235L55 235L55 261L5 261L5 287L45 287L45 313L332 313L332 339L27 339L27 365L285 365L285 391L209 391L209 417L264 417L264 443L72 443L72 470L14 470L14 496L266 496L266 522L648 522L648 548L406 548L406 574L171 574L171 600L0 600L0 574L0 574L0 548L0 548L0 522L0 522L0 496L0 496L0 470L0 470L0 443L0 443L0 417L0 417L0 391L0 391L0 365L0 365L0 339L0 339L0 313L0 313L0 287L0 287L0 261L0 261L0 235L0 235L0 209L0 209L0 183L0 183L0 157L0 157L0 130L0 130L0 104L0 104L0 78L0 78L0 52L0 52L0 26L0 26L0 0L0 0Z" fill="#b3c2d0"></path><path d="M115 0L327 0L327 26L220 26L220 52L306 52L306 78L257 78L257 104L594 104L594 130L178 130L178 157L43 157L43 183L590 183L590 209L362 209L362 235L289 235L289 261L155 261L155 287L393 287L393 313L480 313L480 339L523 339L523 365L450 365L450 391L217 391L217 417L353 417L353 443L603 443L603 470L575 470L575 496L526 496L526 522L433 522L433 548L300 548L300 574L330 574L330 600L0 600L0 574L0 574L0 548L0 548L0 522L0 522L0 496L0 496L0 470L0 470L0 443L0 443L0 417L0 417L0 391L0 391L0 365L0 365L0 339L0 339L0 313L0 313L0 287L0 287L0 261L0 261L0 235L0 235L0 209L0 209L0 183L0 183L0 157L0 157L0 130L0 130L0 104L0 104L0 78L0 78L0 52L0 52L0 26L0 26L0 0L0 0Z" fill="#aabaca"></path><path d="M140 0L177 0L177 26L123 26L123 52L165 52L165 78L328 78L328 104L305 104L305 130L44 130L44 157L196 157L196 183L444 183L444 209L508 209L508 235L223 235L223 261L283 261L283 287L139 287L139 313L405 313L405 339L464 339L464 365L293 365L293 391L400 391L400 417L404 417L404 443L538 443L538 470L253 470L253 496L426 496L426 522L459 522L459 548L535 548L535 574L90 574L90 600L0 600L0 574L0 574L0 548L0 548L0 522L0 522L0 496L0 496L0 470L0 470L0 443L0 443L0 417L0 417L0 391L0 391L0 365L0 365L0 339L0 339L0 313L0 313L0 287L0 287L0 261L0 261L0 235L0 235L0 209L0 209L0 183L0 183L0 157L0 157L0 130L0 130L0 104L0 104L0 78L0 78L0 52L0 52L0 26L0 26L0 0L0 0Z" fill="#a2b2c3"></path><path d="M36 0L174 0L174 26L106 26L106 52L390 52L390 78L330 78L330 104L440 104L440 130L116 130L116 157L209 157L209 183L262 183L262 209L40 209L40 235L388 235L388 261L441 261L441 287L227 287L227 313L339 313L339 339L222 339L222 365L485 365L485 391L34 391L34 417L67 417L67 443L318 443L318 470L405 470L405 496L361 496L361 522L372 522L372 548L204 548L204 574L81 574L81 600L0 600L0 574L0 574L0 548L0 548L0 522L0 522L0 496L0 496L0 470L0 470L0 443L0 443L0 417L0 417L0 391L0 391L0 365L0 365L0 339L0 339L0 313L0 313L0 287L0 287L0 261L0 261L0 235L0 235L0 209L0 209L0 183L0 183L0 157L0 157L0 130L0 130L0 104L0 104L0 78L0 78L0 52L0 52L0 26L0 26L0 0L0 0Z" fill="#99aabd"></path><path d="M252 0L90 0L90 26L296 26L296 52L183 52L183 78L265 78L265 104L237 104L237 130L106 130L106 157L364 157L364 183L8 183L8 209L438 209L438 235L232 235L232 261L185 261L185 287L398 287L398 313L74 313L74 339L122 339L122 365L409 365L409 391L247 391L247 417L14 417L14 443L66 443L66 470L382 470L382 496L0 496L0 522L112 522L112 548L160 548L160 574L165 574L165 600L0 600L0 574L0 574L0 548L0 548L0 522L0 522L0 496L0 496L0 470L0 470L0 443L0 443L0 417L0 417L0 391L0 391L0 365L0 365L0 339L0 339L0 313L0 313L0 287L0 287L0 261L0 261L0 235L0 235L0 209L0 209L0 183L0 183L0 157L0 157L0 130L0 130L0 104L0 104L0 78L0 78L0 52L0 52L0 26L0 26L0 0L0 0Z" fill="#91a2b7"></path><path d="M359 0L217 0L217 26L260 26L260 52L67 52L67 78L188 78L188 104L247 104L247 130L248 130L248 157L219 157L219 183L65 183L65 209L367 209L367 235L216 235L216 261L165 261L165 287L30 287L30 313L77 313L77 339L67 339L67 365L195 365L195 391L310 391L310 417L224 417L224 443L71 443L71 470L148 470L148 496L154 496L154 522L244 522L244 548L76 548L76 574L149 574L149 600L0 600L0 574L0 574L0 548L0 548L0 522L0 522L0 496L0 496L0 470L0 470L0 443L0 443L0 417L0 417L0 391L0 391L0 365L0 365L0 339L0 339L0 313L0 313L0 287L0 287L0 261L0 261L0 235L0 235L0 209L0 209L0 183L0 183L0 157L0 157L0 130L0 130L0 104L0 104L0 78L0 78L0 52L0 52L0 26L0 26L0 0L0 0Z" fill="#899ab1"></path><path d="M215 0L168 0L168 26L311 26L311 52L316 52L316 78L172 78L172 104L328 104L328 130L297 130L297 157L264 157L264 183L273 183L273 209L258 209L258 235L8 235L8 261L288 261L288 287L252 287L252 313L311 313L311 339L298 339L298 365L7 365L7 391L296 391L296 417L151 417L151 443L105 443L105 470L157 470L157 496L224 496L224 522L209 522L209 548L177 548L177 574L55 574L55 600L0 600L0 574L0 574L0 548L0 548L0 522L0 522L0 496L0 496L0 470L0 470L0 443L0 443L0 417L0 417L0 391L0 391L0 365L0 365L0 339L0 339L0 313L0 313L0 287L0 287L0 261L0 261L0 235L0 235L0 209L0 209L0 183L0 183L0 157L0 157L0 130L0 130L0 104L0 104L0 78L0 78L0 52L0 52L0 26L0 26L0 0L0 0Z" fill="#8192ab"></path><path d="M90 0L158 0L158 26L128 26L128 52L173 52L173 78L245 78L245 104L170 104L170 130L57 130L57 157L122 157L122 183L197 183L197 209L100 209L100 235L100 235L100 261L147 261L147 287L125 287L125 313L110 313L110 339L50 339L50 365L2 365L2 391L67 391L67 417L258 417L258 443L42 443L42 470L46 470L46 496L75 496L75 522L147 522L147 548L32 548L32 574L249 574L249 600L0 600L0 574L0 574L0 548L0 548L0 522L0 522L0 496L0 496L0 470L0 470L0 443L0 443L0 417L0 417L0 391L0 391L0 365L0 365L0 339L0 339L0 313L0 313L0 287L0 287L0 261L0 261L0 235L0 235L0 209L0 209L0 183L0 183L0 157L0 157L0 130L0 130L0 104L0 104L0 78L0 78L0 52L0 52L0 26L0 26L0 0L0 0Z" fill="#7a8aa5"></path><path d="M73 0L213 0L213 26L160 26L160 52L145 52L145 78L181 78L181 104L187 104L187 130L192 130L192 157L106 157L106 183L25 183L25 209L117 209L117 235L205 235L205 261L40 261L40 287L121 287L121 313L178 313L178 339L213 339L213 365L20 365L20 391L77 391L77 417L177 417L177 443L166 443L166 470L146 470L146 496L124 496L124 522L151 522L151 548L124 548L124 574L184 574L184 600L0 600L0 574L0 574L0 548L0 548L0 522L0 522L0 496L0 496L0 470L0 470L0 443L0 443L0 417L0 417L0 391L0 391L0 365L0 365L0 339L0 339L0 313L0 313L0 287L0 287L0 261L0 261L0 235L0 235L0 209L0 209L0 183L0 183L0 157L0 157L0 130L0 130L0 104L0 104L0 78L0 78L0 52L0 52L0 26L0 26L0 0L0 0Z" fill="#73829e"></path><path d="M140 0L67 0L67 26L123 26L123 52L32 52L32 78L155 78L155 104L5 104L5 130L133 130L133 157L65 157L65 183L71 183L71 209L90 209L90 235L159 235L159 261L28 261L28 287L55 287L55 313L107 313L107 339L165 339L165 365L51 365L51 391L158 391L158 417L75 417L75 443L37 443L37 470L99 470L99 496L88 496L88 522L120 522L120 548L143 548L143 574L133 574L133 600L0 600L0 574L0 574L0 548L0 548L0 522L0 522L0 496L0 496L0 470L0 470L0 443L0 443L0 417L0 417L0 391L0 391L0 365L0 365L0 339L0 339L0 313L0 313L0 287L0 287L0 261L0 261L0 235L0 235L0 209L0 209L0 183L0 183L0 157L0 157L0 130L0 130L0 104L0 104L0 78L0 78L0 52L0 52L0 26L0 26L0 0L0 0Z" fill="#6c7a98"></path><path d="M65 0L46 0L46 26L43 26L43 52L51 52L51 78L61 78L61 104L26 104L26 130L64 130L64 157L59 157L59 183L76 183L76 209L101 209L101 235L53 235L53 261L5 261L5 287L8 287L8 313L42 313L42 339L41 339L41 365L18 365L18 391L19 391L19 417L66 417L66 443L94 443L94 470L7 470L7 496L31 496L31 522L17 522L17 548L46 548L46 574L63 574L63 600L0 600L0 574L0 574L0 548L0 548L0 522L0 522L0 496L0 496L0 470L0 470L0 443L0 443L0 417L0 417L0 391L0 391L0 365L0 365L0 339L0 339L0 313L0 313L0 287L0 287L0 261L0 261L0 235L0 235L0 209L0 209L0 183L0 183L0 157L0 157L0 130L0 130L0 104L0 104L0 78L0 78L0 52L0 52L0 26L0 26L0 0L0 0Z" fill="#667292"></path></svg>